<?xml version="1.0" encoding="UTF-8"?>
<svg id="Layer_1" data-name="Layer 1" xmlns="http://www.w3.org/2000/svg" viewBox="0 0 251.31 442.94">
  <defs>
    <style>
      .cls-1 {
        fill: #fff;
        stroke-width: 0px;
      }
    </style>
  </defs>
  <g>
    <path class="cls-1" d="M187.62,173.99l-31.88,33.99-25.85,26.04c-1.16,1.08-2.26,1.93-3.4,2.62-3.56,2.31-7.73,3.54-12.02,3.54-12.35,0-22.4-10.05-22.4-22.4,0-4.38,1.28-8.61,3.65-12.22h-27.57c-1.29,0-2.34-.97-2.34-2.16v-60.91h.15l-.18-37.88c0-.89,0-.99,28.78-30.04l1.03-1.04,29.35-27.85s.24-.23.59-.58c.35-.34.82-.8,1.29-1.26,2.36-2.29,2.92-2.84,4.07-1.88l1.12.95-.86,1.23c-2.1,2.81-7.47,11.08-7.47,15.91,0,5.39,2.34,10.51,6.44,14.05l3.24,2.81-35.62-.04-.09.11-.12,40.33h-.15v56.68h33.1l-2.42,2.67c-3.17,3.49-4.91,8.01-4.91,12.73,0,9.25,6.58,17.15,15.64,18.78.56.13,1.05.21,1.54.27.61.05,1.27.07,1.92.07,10.53,0,19.1-8.58,19.1-19.12,0-4.72-1.74-9.24-4.91-12.73l-2.42-2.67h33.6Z"/>
    <g>
      <path class="cls-1" d="M54.28,316.53v-43.28h15.43v43.28h-15.43ZM54.79,268.89v-12.08h14.51v12.08h-14.51Z"/>
      <path class="cls-1" d="M105.45,273.25h15.1v42.11c0,5.87-2,10.44-6,13.71-4,3.27-9.63,4.91-16.9,4.91-6.88,0-12.19-1.47-15.94-4.4-3.75-2.94-5.7-7-5.87-12.2h15.18c.17,3.52,2.52,5.28,7.05,5.28,2.29,0,4.04-.59,5.24-1.76,1.2-1.17,1.8-2.82,1.8-4.95v-6.71c-2.57,3.75-6.43,5.62-11.58,5.62-5.59,0-10.12-2.01-13.59-6.04-3.47-3.97-5.2-9.09-5.2-15.35s1.68-11.44,5.03-15.35c3.35-3.91,7.83-5.87,13.42-5.87s9.67,2.1,12.25,6.29v-5.29ZM97.81,302.78c5.03,0,7.55-3.1,7.55-9.31s-2.52-9.14-7.55-9.14-7.55,3.16-7.55,9.48c0,5.98,2.52,8.97,7.55,8.97Z"/>
      <path class="cls-1" d="M127.25,316.53v-43.28h15.43v43.28h-15.43ZM127.75,268.89v-12.08h14.51v12.08h-14.51Z"/>
      <path class="cls-1" d="M176.57,284.16h-8.14v17.28c0,1.62.35,2.67,1.05,3.15.7.47,2,.71,3.9.71h3.19v11.24c-2.63.28-4.81.42-6.54.42-6.1,0-10.46-1.06-13.08-3.19s-3.94-5.62-3.94-10.49v-19.12h-6.12v-10.9h6.12v-13.08h15.43v13.08h8.14v10.9Z"/>
      <path class="cls-1" d="M181.6,316.53v-43.28h15.43v43.28h-15.43ZM182.1,268.89v-12.08h14.51v12.08h-14.51Z"/>
    </g>
  </g>
  <g>
    <path class="cls-1" d="M44.3,360.57v2.17h-2.48v-2c0-2.04,1.3-2.91,2.87-2.91v1.11c-.98,0-1.39.59-1.39,1.63h1ZM47.88,360.57v2.17h-2.48v-2c0-2.04,1.3-2.91,2.87-2.91v1.11c-.98,0-1.39.59-1.39,1.63h1Z"/>
    <path class="cls-1" d="M53.99,373.63l-4.67-15.23h2.17l3.58,12.36,3.22-12.36h2.24l3.22,12.38,3.58-12.38h2.17l-4.67,15.23h-2.26l-3.15-11.99-3.17,11.99h-2.26Z"/>
    <path class="cls-1" d="M73.04,364c.83-.91,2.02-1.54,3.39-1.54,2.32,0,3.85,1.61,3.85,4.06v7.1h-2.04v-6.97c0-1.5-.89-2.48-2.22-2.48-1.76,0-2.98,1.2-2.98,3.02v6.43h-2.04v-15.23h2.04v5.61Z"/>
    <path class="cls-1" d="M87.14,362.44c3.11,0,5.28,2.35,5.28,5.67v.54h-8.5c.17,2.11,1.41,3.41,3.22,3.41,1.43,0,2.52-.78,2.98-2.11l1.93.41c-.61,2.06-2.46,3.43-4.91,3.43-3.11,0-5.28-2.35-5.28-5.69s2.17-5.67,5.28-5.67ZM83.99,367.11h6.3c-.26-1.82-1.48-2.93-3.15-2.93s-2.85,1.11-3.15,2.93Z"/>
    <path class="cls-1" d="M95.66,362.66c.13.5.24,1,.3,1.5.78-1,1.74-1.69,3.04-1.69l.2,1.78c-1.93-.11-3.19,1.17-3.19,3.15v6.24h-2.04v-7.82c0-1.56-.04-2.32-.15-3.15h1.85Z"/>
    <path class="cls-1" d="M105.03,362.44c3.11,0,5.28,2.35,5.28,5.67v.54h-8.5c.17,2.11,1.41,3.41,3.22,3.41,1.43,0,2.52-.78,2.98-2.11l1.93.41c-.61,2.06-2.46,3.43-4.91,3.43-3.11,0-5.28-2.35-5.28-5.69s2.17-5.67,5.28-5.67ZM101.88,367.11h6.3c-.26-1.82-1.48-2.93-3.15-2.93s-2.85,1.11-3.15,2.93Z"/>
    <path class="cls-1" d="M117.04,358.4h2.04v15.23h-2.04v-15.23Z"/>
    <path class="cls-1" d="M126.04,362.44c3.11,0,5.28,2.35,5.28,5.67v.54h-8.5c.17,2.11,1.41,3.41,3.22,3.41,1.43,0,2.52-.78,2.98-2.11l1.93.41c-.61,2.06-2.46,3.43-4.91,3.43-3.11,0-5.28-2.35-5.28-5.69s2.17-5.67,5.28-5.67ZM122.89,367.11h6.3c-.26-1.82-1.48-2.93-3.15-2.93s-2.85,1.11-3.15,2.93Z"/>
    <path class="cls-1" d="M139.88,373.63c-.11-.41-.26-1.09-.3-1.5-.78,1-1.91,1.69-3.32,1.69-2.28,0-3.82-1.37-3.82-3.39,0-1.91,1.69-3.06,4.54-3.39l2.52-.3v-.54c0-1.2-.87-2.02-2.11-2.02s-2.11.54-2.41,1.54l-1.98-.35c.48-1.78,2.15-2.93,4.39-2.93,2.5,0,4.17,1.61,4.17,4.08v3.95c0,1.54.02,2.32.13,3.15h-1.8ZM139.49,369.18v-.98l-2.48.3c-1.56.17-2.54.83-2.54,1.89s.87,1.74,2.11,1.74c1.8,0,2.91-1.2,2.91-2.95Z"/>
    <path class="cls-1" d="M145.35,362.66c.13.5.24,1,.3,1.5.78-1,1.74-1.69,3.04-1.69l.2,1.78c-1.93-.11-3.19,1.17-3.19,3.15v6.24h-2.04v-7.82c0-1.56-.04-2.32-.15-3.15h1.85Z"/>
    <path class="cls-1" d="M151.78,362.66c.13.5.24,1,.3,1.5.83-1,2.04-1.69,3.43-1.69,2.32,0,3.85,1.61,3.85,4.06v7.1h-2.04v-6.97c0-1.5-.89-2.48-2.22-2.48-1.76,0-2.98,1.2-2.98,3.02v6.43h-2.04v-7.82c0-1.56-.04-2.32-.15-3.15h1.85Z"/>
    <path class="cls-1" d="M161.17,358.23h2.35v2.37h-2.35v-2.37ZM161.32,362.66h2.04v10.97h-2.04v-10.97Z"/>
    <path class="cls-1" d="M167.17,362.66c.13.5.24,1,.3,1.5.83-1,2.04-1.69,3.43-1.69,2.32,0,3.85,1.61,3.85,4.06v7.1h-2.04v-6.97c0-1.5-.89-2.48-2.22-2.48-1.76,0-2.98,1.2-2.98,3.02v6.43h-2.04v-7.82c0-1.56-.04-2.32-.15-3.15h1.85Z"/>
    <path class="cls-1" d="M184.42,372.15c-.78,1.04-2.09,1.65-3.45,1.65-2.76,0-4.69-2.33-4.69-5.65s1.93-5.71,4.69-5.71c1.48,0,2.78.76,3.54,1.82.07-.52.2-1.2.28-1.61h1.82c-.11.74-.15,1.74-.15,3.13v7.69c0,3-1.8,4.91-4.89,4.91-2.52,0-4.43-1.28-5.06-3.3l1.98-.41c.46,1.26,1.56,1.98,3.09,1.98,1.85,0,2.85-1.2,2.85-3.15v-1.35ZM181.48,372.07c1.87,0,2.93-1.59,2.93-3.54v-.69c0-2.04-1.13-3.69-2.93-3.69-1.96,0-3.17,1.56-3.17,4.02s1.22,3.91,3.17,3.91Z"/>
    <path class="cls-1" d="M84.15,396.68h-2.04v-6.97c0-1.67-.98-2.48-2.15-2.48-1.37,0-2.69,1.06-2.69,3.02v6.43h-2.04v-7.82c0-1.56-.04-2.32-.15-3.15h1.85c.13.5.24,1,.3,1.5.91-1.11,2.15-1.72,3.35-1.72,1.41,0,2.61.74,3.19,2.09.93-1.43,2.22-2.09,3.67-2.09,2.02,0,3.61,1.5,3.61,4.08v7.1h-2.04v-6.97c0-1.67-.98-2.48-2.15-2.48-1.37,0-2.69,1.06-2.69,3.02v6.43Z"/>
    <path class="cls-1" d="M97.83,385.49c3.11,0,5.28,2.35,5.28,5.67v.54h-8.5c.17,2.11,1.41,3.41,3.22,3.41,1.43,0,2.52-.78,2.98-2.11l1.93.41c-.61,2.06-2.46,3.43-4.91,3.43-3.11,0-5.28-2.35-5.28-5.69s2.17-5.67,5.28-5.67ZM94.68,390.16h6.3c-.26-1.82-1.48-2.93-3.15-2.93s-2.85,1.11-3.15,2.93Z"/>
    <path class="cls-1" d="M109.5,385.49c3.11,0,5.28,2.35,5.28,5.67v.54h-8.5c.17,2.11,1.41,3.41,3.22,3.41,1.43,0,2.52-.78,2.98-2.11l1.93.41c-.61,2.06-2.46,3.43-4.91,3.43-3.11,0-5.28-2.35-5.28-5.69s2.17-5.67,5.28-5.67ZM106.35,390.16h6.3c-.26-1.82-1.48-2.93-3.15-2.93s-2.85,1.11-3.15,2.93Z"/>
    <path class="cls-1" d="M116.91,387.29h-1.67v-1.35l1.67-.24.59-2.87h1.48v2.87h2.37v1.61h-2.37v6.19c0,.91.28,1.72,1.48,1.72.35,0,.74-.04,1.33-.2v1.72c-.52.11-1.09.15-1.54.15-2.37,0-3.32-1.59-3.32-3.32v-6.28Z"/>
    <path class="cls-1" d="M131.66,388.51l-1.98.35c-.33-1-1.22-1.63-2.43-1.63s-2,.57-2,1.35c0,1,1.04,1.28,2.48,1.65,1.98.5,4.17,1.11,4.17,3.43,0,1.67-1.63,3.24-4.22,3.24s-4.45-1.43-4.95-3.48l1.98-.35c.35,1.3,1.48,2.09,2.98,2.09,1.33,0,2.17-.7,2.17-1.52,0-1-1.06-1.37-2.41-1.69-2.04-.52-4.22-1.04-4.22-3.37,0-1.78,1.67-3.09,4.02-3.09s3.95,1.26,4.41,3.02Z"/>
    <path class="cls-1" d="M140.83,401.02h-2.04v-12.17c0-1.39-.04-2.39-.15-3.15h1.82c.09.41.22,1.09.28,1.61.76-1.04,2.06-1.82,3.54-1.82,2.76,0,4.69,2.37,4.69,5.74s-1.93,5.67-4.69,5.67c-1.37,0-2.67-.63-3.46-1.67v5.8ZM140.83,391.59c0,1.96,1.06,3.56,2.93,3.56s3.17-1.52,3.17-3.93-1.22-4.02-3.17-4.02c-1.8,0-2.93,1.65-2.93,3.69v.69Z"/>
    <path class="cls-1" d="M150.68,381.45h2.04v15.23h-2.04v-15.23Z"/>
    <path class="cls-1" d="M161.84,396.68c-.11-.41-.26-1.09-.3-1.5-.78,1-1.91,1.69-3.32,1.69-2.28,0-3.82-1.37-3.82-3.39,0-1.91,1.69-3.06,4.54-3.39l2.52-.3v-.54c0-1.2-.87-2.02-2.11-2.02s-2.11.54-2.41,1.54l-1.98-.35c.48-1.78,2.15-2.93,4.39-2.93,2.5,0,4.17,1.61,4.17,4.08v3.95c0,1.54.02,2.32.13,3.15h-1.8ZM161.45,392.22v-.98l-2.48.3c-1.56.17-2.54.83-2.54,1.89s.87,1.74,2.11,1.74c1.8,0,2.91-1.2,2.91-2.95Z"/>
    <path class="cls-1" d="M168.77,396.68l-4.3-10.97h2.09l3.17,8.41,3.17-8.41h2.06l-4.63,11.93c-.65,1.74-1.46,3.65-4.02,3.65-.52,0-1.13-.07-1.67-.22v-1.72c.74.22,1.17.26,1.54.26,1.43,0,1.93-1.17,2.32-2.26l.26-.67Z"/>
    <path class="cls-1" d="M176.07,381.27h2.35v2.37h-2.35v-2.37ZM176.23,385.7h2.04v10.97h-2.04v-10.97Z"/>
    <path class="cls-1" d="M182.07,385.7c.13.5.24,1,.3,1.5.83-1,2.04-1.69,3.43-1.69,2.32,0,3.85,1.61,3.85,4.06v7.1h-2.04v-6.97c0-1.5-.89-2.48-2.22-2.48-1.76,0-2.98,1.2-2.98,3.02v6.43h-2.04v-7.82c0-1.56-.04-2.32-.15-3.15h1.85Z"/>
    <path class="cls-1" d="M199.32,395.2c-.78,1.04-2.09,1.65-3.45,1.65-2.76,0-4.69-2.33-4.69-5.65s1.93-5.71,4.69-5.71c1.48,0,2.78.76,3.54,1.82.07-.52.2-1.2.28-1.61h1.82c-.11.74-.15,1.74-.15,3.13v7.69c0,3-1.8,4.91-4.89,4.91-2.52,0-4.43-1.28-5.06-3.3l1.98-.41c.46,1.26,1.56,1.98,3.09,1.98,1.85,0,2.85-1.2,2.85-3.15v-1.35ZM196.39,395.11c1.87,0,2.93-1.59,2.93-3.54v-.69c0-2.04-1.13-3.69-2.93-3.69-1.96,0-3.17,1.56-3.17,4.02s1.22,3.91,3.17,3.91Z"/>
    <path class="cls-1" d="M203.43,383.31v-2.17h2.48v2c0,2.04-1.3,2.91-2.87,2.91v-1.11c.98,0,1.39-.59,1.39-1.63h-1ZM207.01,383.31v-2.17h2.48v2c0,2.04-1.3,2.91-2.87,2.91v-1.11c.98,0,1.39-.59,1.39-1.63h-1Z"/>
  </g>
</svg>