<?xml version="1.0" encoding="UTF-8"?>
<svg id="Layer_1" data-name="Layer 1" xmlns="http://www.w3.org/2000/svg" viewBox="0 0 251.31 375.64">
  <defs>
    <style>
      .cls-1 {
        fill: #fff;
        stroke-width: 0px;
      }
    </style>
  </defs>
  <path class="cls-1" d="M187.62,174.07l-31.88,33.99-25.85,26.04c-1.16,1.08-2.26,1.93-3.4,2.62-3.56,2.31-7.73,3.54-12.02,3.54-12.35,0-22.4-10.05-22.4-22.4,0-4.38,1.28-8.61,3.65-12.22h-27.57c-1.29,0-2.34-.97-2.34-2.16v-60.91h.15l-.18-37.88c0-.89,0-.99,28.78-30.04l1.03-1.04,29.35-27.85s.24-.23.59-.58c.35-.34.82-.8,1.29-1.26,2.36-2.29,2.92-2.84,4.07-1.88l1.12.95-.86,1.23c-2.1,2.81-7.47,11.08-7.47,15.91,0,5.39,2.34,10.51,6.44,14.05l3.24,2.81-35.62-.04-.09.11-.12,40.33h-.15v56.68h33.1l-2.42,2.67c-3.17,3.49-4.91,8.01-4.91,12.73,0,9.25,6.58,17.15,15.64,18.78.56.13,1.05.21,1.54.27.61.05,1.27.07,1.92.07,10.53,0,19.1-8.58,19.1-19.12,0-4.72-1.74-9.24-4.91-12.73l-2.42-2.67h33.6Z"/>
  <g>
    <path class="cls-1" d="M54.28,316.61v-43.28h15.43v43.28h-15.43ZM54.78,268.97v-12.08h14.51v12.08h-14.51Z"/>
    <path class="cls-1" d="M105.44,273.33h15.1v42.11c0,5.87-2,10.44-6,13.71-4,3.27-9.63,4.91-16.9,4.91-6.88,0-12.19-1.47-15.94-4.4-3.75-2.94-5.7-7-5.87-12.2h15.18c.17,3.52,2.52,5.28,7.05,5.28,2.29,0,4.04-.59,5.24-1.76,1.2-1.17,1.8-2.82,1.8-4.95v-6.71c-2.57,3.75-6.43,5.62-11.58,5.62-5.59,0-10.12-2.01-13.59-6.04-3.47-3.97-5.2-9.09-5.2-15.35s1.68-11.44,5.03-15.35c3.35-3.91,7.83-5.87,13.42-5.87s9.67,2.1,12.25,6.29v-5.29ZM97.81,302.86c5.03,0,7.55-3.1,7.55-9.31s-2.52-9.14-7.55-9.14-7.55,3.16-7.55,9.48c0,5.98,2.52,8.97,7.55,8.97Z"/>
    <path class="cls-1" d="M127.25,316.61v-43.28h15.43v43.28h-15.43ZM127.75,268.97v-12.08h14.51v12.08h-14.51Z"/>
    <path class="cls-1" d="M176.57,284.23h-8.14v17.28c0,1.62.35,2.67,1.05,3.15.7.47,2,.71,3.9.71h3.19v11.24c-2.63.28-4.81.42-6.54.42-6.1,0-10.46-1.06-13.08-3.19s-3.94-5.62-3.94-10.49v-19.12h-6.12v-10.9h6.12v-13.08h15.43v13.08h8.14v10.9Z"/>
    <path class="cls-1" d="M181.6,316.61v-43.28h15.43v43.28h-15.43ZM182.1,268.97v-12.08h14.51v12.08h-14.51Z"/>
  </g>
</svg>